<svg xmlns="http://www.w3.org/2000/svg" viewBox="0 0 44 44"><defs><style>.cls-1{fill:#111216;}</style></defs><title>send-arrow-right@1x</title><g id="Layer_2" data-name="Layer 2"><g id="Arrows"><g id="Curved_Arrow_Right_2x.png" data-name="Curved Arrow Right@2x.png"><path class="cls-1" d="M43.71,11.29l-12-11A1,1,0,0,0,30,1V6c-5.29.42-30,4.17-30,37a1,1,0,0,0,2,0C2,32.68,7,25.34,16.8,21.19A41.16,41.16,0,0,1,30,18.1V23a1,1,0,0,0,1.71.71l12-11a1,1,0,0,0,0-1.42ZM32,20.73V17a1,1,0,0,0-1-1H30c-4.08.22-18.61,1.84-26,12.83C9.8,10.58,25.64,8.28,30,8h1a1,1,0,0,0,1-1V3.27L41.52,12Z"/></g></g></g></svg>